<?xml version="1.0" encoding="UTF-8" standalone="no"?><!DOCTYPE svg PUBLIC "-//W3C//DTD SVG 1.1//EN" "http://www.w3.org/Graphics/SVG/1.1/DTD/svg11.dtd"><svg width="100%" height="100%" viewBox="0 0 250 250" version="1.1" xmlns="http://www.w3.org/2000/svg" xmlns:xlink="http://www.w3.org/1999/xlink" xml:space="preserve" xmlns:serif="http://www.serif.com/" style="fill-rule:evenodd;clip-rule:evenodd;stroke-linejoin:round;stroke-miterlimit:2;"><g transform="matrix(1,0,0,0.682258,0,-149.346)"><g transform="matrix(541.765,0,0,541.765,-24.7981,568.437)"><path d="M0.065,-0.442l0.175,0l-0,0.436l-0.082,0.009c-0.029,0 -0.051,-0.008 -0.068,-0.025c-0.017,-0.017 -0.025,-0.039 -0.025,-0.068l-0,-0.352Zm0.093,0.445l-0,-0.141l0.311,0c0.005,0.007 0.009,0.017 0.013,0.029c0.004,0.012 0.006,0.025 0.006,0.039c-0,0.025 -0.005,0.043 -0.016,0.055c-0.011,0.012 -0.025,0.018 -0.044,0.018l-0.27,0Zm0.082,-0.214l-0.175,0l-0,-0.397c0.008,-0.001 0.02,-0.003 0.035,-0.006c0.016,-0.002 0.031,-0.003 0.046,-0.003c0.033,0 0.057,0.006 0.072,0.017c0.015,0.011 0.022,0.033 0.022,0.066l-0,0.323Z" style="fill:#00bcd4;fill-rule:nonzero;"/></g><g transform="matrix(541.765,0,0,541.765,253.127,568.437)"></g></g></svg>