<?xml version="1.0" encoding="UTF-8" standalone="no"?>
<!-- Created with Inkscape (http://www.inkscape.org/) -->

<svg
   version="1.1"
   id="svg1"
   width="854.66669"
   height="801.33331"
   viewBox="0 0 854.66669 801.33331"
   xmlns="http://www.w3.org/2000/svg"
   xmlns:svg="http://www.w3.org/2000/svg">
  <defs
     id="defs1" />
  <g
     id="g1">
    <g
       id="g2"
       transform="matrix(4.0469362,0,0,4.0469362,-1053.435,-1079.3584)">
      <path
         style="fill:#ea050d"
         d="m 395.91497,438.16666 c -0.82924,-1.05737 -0.80566,-1.08096 0.25171,-0.25171 0.64166,0.50323 1.16666,1.02823 1.16666,1.16667 0,0.54869 -0.54745,0.19553 -1.41837,-0.91496 z m -63.91496,-98.84978 c -6.73855,-2.72342 -8.7053,-4.56782 -12.82035,-12.02279 -2.73014,-4.94603 -3.89631,-10.21283 -4.54934,-20.54635 -1.22592,-19.39898 -2.58515,-24.83169 -7.60947,-30.41441 -1.64996,-1.83334 -3.00463,-3.60107 -3.01039,-3.92831 -0.0163,-0.92547 7.52743,0.0842 14.94506,2.00037 4.89164,1.2636 9.11344,3.00783 15.57181,6.43345 7.7514,4.11145 9.46232,5.34057 13.66667,9.81807 5.19448,5.53197 10.56176,14.72156 12.20673,20.89977 1.38681,5.20864 1.19352,13.0293 -0.42923,17.36649 -2.49414,6.66618 -9.93454,11.5535 -18.44453,12.11551 -3.90941,0.25819 -5.20904,0.0233 -9.52696,-1.7218 z"
         id="path3" />
      <path
         style="fill:#090606"
         d="m 419.98168,461.54643 c -5.67668,-3.85791 -24.86941,-23.62371 -29.98449,-30.87977 -1.74311,-2.47272 -2.29659,-3.18097 -5.99718,-7.67426 -10.53921,-12.79679 -27.53802,-39.62532 -31.04205,-48.99241 -0.48007,-1.28333 -1.74878,-4.43333 -2.81935,-7 -2.24141,-5.37368 -4.51465,-14.39178 -3.97941,-15.78658 0.47319,-1.23313 15.90328,-9.21342 17.81437,-9.21342 1.69814,0 3.20016,1.49282 10.01383,9.95253 12.48837,15.50528 24.98192,36.42703 32.46473,54.36555 0.9212,2.20839 2.06844,4.91525 2.54942,6.01525 1.76897,4.04562 6.19734,15.41178 7.01299,18 0.4622,1.46667 2.33705,6.41667 4.16633,11 3.36802,8.43872 5.81914,16.06986 5.81914,18.11693 0,1.44912 -1.77619,3.2164 -3.23261,3.2164 -0.62556,0 -1.87913,-0.5041 -2.78572,-1.12022 z"
         id="path2" />
    </g>
  </g>
</svg>
