<?xml version="1.0" encoding="UTF-8" standalone="no"?>
<!-- Created with Inkscape (http://www.inkscape.org/) -->

<svg
   version="1.1"
   id="svg1"
   width="854.66669"
   height="801.33331"
   viewBox="0 0 854.66669 801.33331"
   xmlns="http://www.w3.org/2000/svg"
   xmlns:svg="http://www.w3.org/2000/svg">
  <defs
     id="defs1" />
  <g
     id="g1">
    <g
       id="g2">
      <path
         style="fill:#fefefe"
         d="M 0,400.66666 V 0 H 427.33334 854.66669 V 400.66666 801.33331 H 427.33334 0 Z m 348.38445,155.9507 c 3.74614,-0.52104 6.75145,-1.50827 11.03865,-3.62614 6.14352,-3.03489 13.99404,-8.27398 15.41661,-10.28835 0.45483,-0.64405 1.72697,-1.63497 2.82697,-2.20204 1.82397,-0.9403 4.68546,-3.11906 14.86792,-11.32056 1.94402,-1.56582 4.3682,-3.29695 5.38706,-3.84695 1.01886,-0.55 3.02829,-1.96495 4.46541,-3.14434 3.98734,-3.27224 11.4627,-8.73212 13.12767,-9.58821 0.8169,-0.42004 2.30364,-1.52681 3.30386,-2.45951 2.71886,-2.5353 12.19634,-8.01744 15.79067,-9.13393 0.88509,-0.27494 2.98509,-1.44924 4.66666,-2.60956 2.68698,-1.85408 5.06332,-2.75771 15.39075,-5.8525 3.65908,-1.09651 7.89873,-4.02466 8.7288,-6.02861 1.15654,-2.79215 0.16902,-6.47456 -2.38135,-8.87987 -2.23469,-2.10759 -10.83929,-5.6304 -13.7857,-5.64402 -0.85896,-0.004 -3.03443,-0.45397 -4.83437,-1 -4.56148,-1.38377 -6.51172,-1.24665 -9.12879,0.64183 -6.60497,4.76614 -17.05933,11.42201 -26.26526,16.72201 -3.66667,2.11096 -8.76667,5.12569 -11.33333,6.69939 -2.56667,1.5737 -6.18478,3.70488 -8.04025,4.73596 -3.37963,1.87805 -7.01213,4.1714 -16.96072,10.70803 -2.92981,1.925 -5.78778,3.5 -6.35105,3.5 -1.01646,0 -11.54253,-20.77113 -14.41024,-28.4358 -0.72677,-1.94245 -2.48594,-5.65032 -3.90927,-8.23971 -1.42333,-2.58938 -2.78914,-5.37169 -3.03514,-6.1829 -0.24599,-0.81121 -1.76263,-4.27429 -3.3703,-7.69573 -1.60767,-3.42144 -2.92304,-6.36566 -2.92304,-6.54272 0,-0.17705 -0.78186,-2.02769 -1.73747,-4.11253 -0.95561,-2.08483 -2.61349,-6.49061 -3.68418,-9.79061 -1.07068,-3.3 -3.13882,-8.46883 -4.59586,-11.48629 -1.45703,-3.01746 -2.64915,-5.78102 -2.64915,-6.14123 0,-1.17649 -4.68516,-10.5579 -5.68861,-11.39069 -0.53793,-0.44644 -0.97806,-1.0467 -0.97806,-1.3339 0,-0.2872 -1.46353,-3.62546 -3.25229,-7.41837 -1.78876,-3.7929 -3.36376,-7.20126 -3.5,-7.57412 -0.13624,-0.37286 -1.83382,-3.58054 -3.7724,-7.12818 -3.16017,-5.78316 -6.53691,-9.86055 -8.16615,-9.86055 -0.32369,0 -1.30377,-0.77135 -2.17795,-1.71412 -2.0921,-2.25624 -6.46976,-3.24887 -9.69908,-2.19927 -9.53066,3.09766 -8.94241,2.6802 -9.85232,6.99194 -2.27188,10.76574 -0.42923,19.89689 8.12715,40.27342 2.07426,4.93975 4.74479,11.38136 5.93451,14.31469 1.18971,2.93334 3.21514,7.58334 4.50096,10.33334 1.28581,2.75 3.65478,7.99549 5.26437,11.65666 1.6096,3.66116 5.43561,11.46116 8.50226,17.33333 7.78758,14.91202 14.64325,28.67634 16.08158,32.28744 0.66945,1.68075 3.79542,8.4184 6.9466,14.97257 3.15119,6.55418 5.72943,12.32265 5.72943,12.81884 0,0.49619 -1.67732,2.57949 -3.72738,4.62954 l -3.72738,3.72738 1.89405,3.78712 c 1.60967,3.21851 2.43748,4.06237 5.51358,5.62045 4.15875,2.10644 3.68514,2.05571 10.43157,1.11737 z m 214.43787,-22.88015 c 2.6644,-1.24453 6.04436,-2.77543 7.51103,-3.402 5.44225,-2.32497 10.77028,-6.41923 13.2462,-10.17887 2.51767,-3.82303 3.01822,-6.16367 1.57438,-7.36194 -0.46534,-0.3862 -2.89583,-1.21707 -5.40109,-1.84637 -2.57046,-0.64568 -5.97077,-2.11805 -7.80452,-3.37945 -1.78722,-1.22939 -3.54629,-2.23526 -3.90904,-2.23526 -0.36274,0 -1.64498,-0.83502 -2.8494,-1.85561 -1.20443,-1.02059 -3.38987,-2.68079 -4.85653,-3.68934 -10.64768,-7.32183 -22.36935,-16.49894 -33,-25.83627 -2.75,-2.41544 -8.6,-7.29012 -13,-10.83263 -4.4,-3.5425 -9.86415,-8.01859 -12.14254,-9.94686 -2.2784,-1.92828 -4.87983,-4.10595 -5.78096,-4.83929 -5.02204,-4.0869 -12.93693,-11.52906 -14.18724,-13.33987 -1.40677,-2.03742 -1.41907,-2.23551 -0.47604,-7.66968 0.53242,-3.06803 1.21128,-5.89598 1.50859,-6.28434 0.61601,-0.80465 2.06975,-6.85873 4.09162,-17.03944 0.76461,-3.85 1.66566,-8.05 2.00234,-9.33333 0.33668,-1.28334 1.38276,-5.63334 2.32462,-9.66667 0.94186,-4.03333 2.0295,-8.08333 2.41699,-9 0.38748,-0.91667 0.93738,-3.01667 1.222,-4.66667 0.79514,-4.60959 2.05804,-9.26942 3.70391,-13.66666 0.82346,-2.2 2.4625,-8.05 3.64231,-13 1.17982,-4.95 2.58398,-9.82976 3.12036,-10.84391 0.53638,-1.01415 1.83093,-5.06415 2.87677,-9 1.04584,-3.93585 3.39213,-12.10609 5.21397,-18.15609 1.82184,-6.05 3.66502,-12.5 4.09595,-14.33333 0.43094,-1.83334 1.40669,-3.99718 2.16835,-4.80854 1.28028,-1.36384 1.30702,-1.59397 0.35417,-3.0482 -0.56687,-0.86515 -1.41532,-2.85685 -1.88545,-4.42602 -1.29515,-4.32282 -5.78614,-8.88669 -10.87161,-11.04805 -4.23025,-1.79787 -4.32571,-1.80712 -7.22512,-0.69983 -2.38395,0.91044 -3.0973,1.5851 -3.78147,3.57638 -0.46378,1.34984 -3.18248,7.55426 -6.04156,13.78759 -2.85907,6.23333 -5.71323,12.68333 -6.34258,14.33333 -0.62934,1.65 -1.45281,3.58394 -1.82994,4.29765 -0.9576,1.81227 -4.73859,12.47478 -7.93219,22.36902 -1.47938,4.58333 -3.97898,12.23333 -5.55467,17 -2.64454,8.00007 -9.36301,34.10789 -12.009,46.66666 -0.61802,2.93334 -1.86647,8.4722 -2.77434,12.3086 -0.90786,3.83639 -2.06107,9.12024 -2.56267,11.74189 -0.50161,2.62165 -2.13434,7.86547 -3.62829,11.65293 -1.49396,3.78746 -2.71629,7.21125 -2.71629,7.60841 0,0.39717 -0.89058,2.51448 -1.97907,4.70515 -1.0885,2.19066 -1.9885,4.35032 -2,4.79924 -0.0115,0.44891 0.95407,1.3198 2.14574,1.93531 5.29142,2.73305 16.22579,11.13136 27.07417,20.7947 6.46754,5.76106 12.95916,11.2001 14.42583,12.08675 2.5608,1.54811 8.65404,6.52211 12.28462,10.02812 0.95241,0.91973 4.70774,4.07223 8.34519,7.00557 3.63744,2.93333 8.58378,6.9949 10.99186,9.02571 5.9293,5.00036 11.45003,9.15091 17.073,12.83564 6.36981,4.17415 14.37454,11.31937 15.61882,13.94173 1.18865,2.50513 4.86998,5.19692 7.10741,5.19692 0.85637,0 3.73701,-1.01825 6.40141,-2.26278 z M 425.20001,461.86665 c 1.80855,-1.80854 0.59891,-7.02983 -4.78023,-20.63343 -1.64559,-4.16161 -4.54464,-11.76656 -6.44235,-16.8999 -1.8977,-5.13333 -4.16895,-10.91722 -5.04722,-12.85309 -0.87828,-1.93586 -1.59687,-3.69827 -1.59687,-3.91645 0,-0.71799 -12.16862,-25.17068 -13.8827,-27.89712 -9.26605,-14.7387 -16.62371,-25.01076 -23.99534,-33.5 -2.93678,-3.38203 -3.99494,-4.16667 -5.61913,-4.16667 -1.16213,0 -5.32027,1.7411 -9.91858,4.15311 -7.14103,3.74578 -7.91758,4.3302 -7.91758,5.95863 0,3.01299 1.87526,10.11731 4.04146,15.31085 1.12654,2.70091 2.38002,5.81074 2.78551,6.91074 0.4055,1.1 1.39039,3.2 2.18865,4.66667 0.79827,1.46667 2.52234,4.63852 3.83129,7.04855 3.16876,5.83436 14.60846,23.64624 15.81102,24.61812 0.22685,0.18333 1.14076,1.53333 2.03091,3 0.89015,1.46666 3.12605,4.46666 4.96867,6.66666 1.84262,2.2 5.10448,6.31117 7.24856,9.13593 3.53178,4.653 7.47297,9.1988 16.35947,18.86912 1.68729,1.83611 5.87077,5.81111 9.29664,8.83333 6.31146,5.56784 8.70747,6.6253 10.63782,4.69495 z m 135.68454,-17.30518 c 9.53704,-2.64285 18.86208,-8.78585 24.66967,-16.25147 3.15876,-4.06058 7.33432,-12.73573 8.45569,-17.56756 1.21781,-5.2474 1.09797,-14.9636 -0.24762,-20.07578 -4.39602,-16.7014 -17.59751,-29.81456 -33.87977,-33.65308 -6.07547,-1.43229 -18.98091,-1.31352 -24.88251,0.229 -12.69432,3.31793 -23.77008,12.4277 -29.6951,24.42408 -10.91015,22.08974 -1.52459,48.72078 20.99802,59.58084 11.27234,5.43535 22.90397,6.55001 34.58162,3.31397 z M 350.4239,338.74226 c 7.24883,-3.86358 10.35905,-8.41505 11.26088,-16.47906 1.04652,-9.35779 -4.93106,-22.814 -14.35144,-32.30673 -3.11667,-3.1406 -6.86667,-6.29968 -8.33333,-7.02016 -1.46667,-0.72049 -4.61667,-2.39231 -7,-3.71516 -8.01302,-4.44755 -28,-9.13132 -28,-6.56155 0,0.36279 1.46359,2.27576 3.25242,4.25105 1.93219,2.13359 3.68802,4.91027 4.32553,6.84039 1.26648,3.83445 3.08871,18.6504 3.08871,25.11326 0,6.20576 1.6974,13.28333 4.42937,18.46903 3.61808,6.86765 6.13115,9.25711 12.66113,12.0384 3.95345,1.68388 5.25887,1.92079 9.59307,1.74094 4.13829,-0.17172 5.72737,-0.58685 9.07366,-2.37041 z"
         id="path7" />
      <path
         style="fill:#eee30e"
         d="m 559.82224,534.58393 c 0.45222,-0.45561 0.99016,-0.66045 1.19541,-0.45519 0.20526,0.20526 -0.16474,0.57803 -0.82222,0.82838 -0.95013,0.36179 -1.02671,0.28522 -0.37319,-0.37319 z m -15.55224,-9.41728 -1.26999,-1.5 1.5,1.27 c 1.40963,1.19347 1.8035,1.73 1.26999,1.73 -0.1265,0 -0.8015,-0.675 -1.5,-1.5 z m 41.15414,-9.86666 c -0.0499,-0.935 -0.46365,-2.135 -0.91936,-2.66667 -0.45572,-0.53167 -0.27982,-0.48006 0.39088,0.11469 0.76508,0.67845 1.10763,1.67204 0.91936,2.66667 -0.29704,1.56914 -0.30102,1.56797 -0.39088,-0.11469 z m -4.21579,-3.75541 c 0.48125,-0.19258 1.05625,-0.1689 1.27777,0.0526 0.22153,0.22153 -0.17222,0.37909 -0.875,0.35015 -0.77662,-0.032 -0.93459,-0.18996 -0.40277,-0.40278 z m -61.29337,-4.71126 c -0.82925,-1.05737 -0.80567,-1.08095 0.2517,-0.2517 0.64167,0.50323 1.16667,1.02823 1.16667,1.16666 0,0.54869 -0.54746,0.19554 -1.41837,-0.91496 z m 44.03458,-4 -1.61621,-1.83333 1.83333,1.61621 c 1.71353,1.51059 2.13906,2.05045 1.61621,2.05045 -0.11942,0 -0.94442,-0.825 -1.83333,-1.83333 z m -55.36792,-5.33333 c -0.82925,-1.05737 -0.80566,-1.08095 0.25171,-0.25171 0.64166,0.50323 1.16666,1.02823 1.16666,1.16667 0,0.54869 -0.54745,0.19554 -1.41837,-0.91496 z m 46.75171,-0.8929 c -1.43585,-1.17445 -1.46407,-1.26423 -0.2038,-0.64826 0.80458,0.39325 1.64729,1.01338 1.87268,1.37808 0.60172,0.97359 0.1976,0.79687 -1.66888,-0.72982 z m -54.75171,-5.77377 c -0.82925,-1.05737 -0.80567,-1.08095 0.25171,-0.2517 0.64166,0.50323 1.16666,1.02823 1.16666,1.16666 0,0.54869 -0.54746,0.19554 -1.41837,-0.91496 z m -3.64497,-3 -1.26999,-1.5 1.5,1.26999 c 1.40963,1.19348 1.80349,1.73001 1.26999,1.73001 -0.1265,0 -0.8015,-0.675 -1.5,-1.5 z m 39.64497,-5.66667 c -0.82924,-1.05737 -0.80566,-1.08095 0.25171,-0.2517 0.64166,0.50323 1.16666,1.02823 1.16666,1.16667 0,0.54869 -0.54745,0.19553 -1.41837,-0.91497 z m -56.31164,-7.66666 -1.26999,-1.5 1.5,1.26999 c 1.40963,1.19348 1.8035,1.73001 1.26999,1.73001 -0.1265,0 -0.8015,-0.675 -1.5,-1.5 z m 47.33334,0 -1.26999,-1.5 1.5,1.26999 c 1.40963,1.19348 1.80349,1.73001 1.26999,1.73001 -0.12651,0 -0.80151,-0.675 -1.5,-1.5 z m -52.35503,-4.33334 c -0.82925,-1.05737 -0.80567,-1.08095 0.2517,-0.2517 0.64167,0.50323 1.16667,1.02823 1.16667,1.16667 0,0.54869 -0.54746,0.19553 -1.41837,-0.91497 z m 47.33333,0 c -0.82924,-1.05737 -0.80566,-1.08095 0.25171,-0.2517 1.11049,0.87091 1.46365,1.41837 0.91496,1.41837 -0.13844,0 -0.66344,-0.525 -1.16667,-1.16667 z m -30.63209,-25.33333 -1.6162,-1.83333 1.83333,1.61621 c 1.00833,0.88891 1.83333,1.71391 1.83333,1.83333 0,0.52285 -0.53986,0.0973 -2.05046,-1.61621 z m -11.23024,-13.88889 c 0.032,-0.77663 0.18996,-0.9346 0.40278,-0.40277 0.19258,0.48125 0.16889,1.05625 -0.0526,1.27777 -0.22153,0.22153 -0.3791,-0.17222 -0.35015,-0.875 z m 63.2807,-8.29919 c -7.56258,-1.32968 -13.49732,-6.07847 -16.27838,-13.02543 -2.05972,-5.14508 -2.21073,-9.59485 -0.49162,-14.48603 2.10643,-5.99316 4.32812,-8.8239 8.91776,-11.36244 5.86513,-3.24402 10.44045,-4.07272 15.37258,-2.78436 7.62597,1.99206 11.57398,5.08527 14.90731,11.67968 2.42382,4.7951 2.54794,11.7178 0.31314,17.46487 -3.32411,8.54836 -13.48698,14.14074 -22.74079,12.51371 z M 485.38598,411.6111 c 0.032,-0.77663 0.18996,-0.9346 0.40277,-0.40278 0.19258,0.48125 0.1689,1.05625 -0.0526,1.27778 -0.22153,0.22153 -0.37909,-0.17222 -0.35014,-0.875 z m 2,-10 c 0.032,-0.77663 0.18996,-0.9346 0.40277,-0.40278 0.19258,0.48125 0.1689,1.05625 -0.0526,1.27778 -0.22153,0.22153 -0.37909,-0.17222 -0.35014,-0.875 z m 2.05263,-8.94444 c 0,-0.91667 0.15131,-1.29167 0.33626,-0.83334 0.18494,0.45834 0.18494,1.20834 0,1.66667 -0.18495,0.45833 -0.33626,0.0833 -0.33626,-0.83333 z m 1.2807,-5.72223 c 0.032,-0.77662 0.18996,-0.93459 0.40278,-0.40277 0.19258,0.48125 0.16889,1.05625 -0.0526,1.27777 -0.22153,0.22153 -0.3791,-0.17222 -0.35015,-0.875 z m -32.61404,-1.61111 c 0,-0.91666 0.15132,-1.29166 0.33626,-0.83333 0.18494,0.45833 0.18494,1.20833 0,1.66667 -0.18494,0.45833 -0.33626,0.0833 -0.33626,-0.83334 z m 44.61404,-43.05555 c 0.032,-0.77663 0.18996,-0.9346 0.40278,-0.40278 0.19258,0.48125 0.16889,1.05625 -0.0526,1.27778 -0.22153,0.22153 -0.3791,-0.17222 -0.35015,-0.875 z m -165.87328,-1.40644 c 0.64864,-0.16903 1.54864,-0.15791 2,0.0247 0.45135,0.18262 -0.0794,0.32092 -1.17936,0.30733 -1.1,-0.0136 -1.46929,-0.163 -0.82064,-0.33203 z m 5.65398,0.0205 c 0.45833,-0.18494 1.20833,-0.18494 1.66666,0 0.45834,0.18495 0.0833,0.33626 -0.83333,0.33626 -0.91667,0 -1.29167,-0.15131 -0.83333,-0.33626 z m 161.60527,-3.55848 c 0,-0.91666 0.15131,-1.29166 0.33625,-0.83333 0.18494,0.45833 0.18494,1.20833 0,1.66667 -0.18494,0.45833 -0.33625,0.0833 -0.33625,-0.83334 z m 2.61403,-7.05555 c 0.032,-0.77663 0.18996,-0.9346 0.40278,-0.40278 0.19258,0.48125 0.16889,1.05625 -0.0526,1.27778 -0.22153,0.22153 -0.3791,-0.17222 -0.35015,-0.875 z M 361.52402,319.66666 c 0.005,-1.83333 0.13447,-2.50421 0.28771,-1.49083 0.15324,1.01337 0.14914,2.51337 -0.009,3.33333 -0.15824,0.81996 -0.28362,-0.009 -0.27861,-1.8425 z m -46.80471,-6.05556 c 0.032,-0.77663 0.18996,-0.9346 0.40277,-0.40277 0.19258,0.48125 0.1689,1.05625 -0.0526,1.27777 -0.22153,0.22153 -0.37909,-0.17222 -0.35014,-0.875 z m -0.61404,-12.94444 c 0,-0.91667 0.15132,-1.29167 0.33626,-0.83333 0.18494,0.45833 0.18494,1.20833 0,1.66666 -0.18494,0.45834 -0.33626,0.0833 -0.33626,-0.83333 z m -7.47448,-24.5 -2.29745,-2.5 2.5,2.29744 c 1.375,1.2636 2.5,2.3886 2.5,2.5 0,0.50908 -0.56414,0.0295 -2.70255,-2.29744 z m 207.98543,-2 -1.61621,-1.83333 1.83334,1.61621 c 1.00833,0.88891 1.83333,1.71391 1.83333,1.83333 0,0.52285 -0.53987,0.0973 -2.05046,-1.61621 z"
         id="path6" />
      <path
         style="fill:#19a943"
         d="m 414.56219,457.1717 c -3.42587,-3.02222 -7.60935,-6.99722 -9.29664,-8.83333 -8.91366,-9.69988 -12.8276,-14.21744 -16.34791,-18.86912 -2.13773,-2.82476 -5.25834,-6.78593 -6.93468,-8.80259 -3.28981,-3.95768 -5.35497,-6.74082 -4.2048,-5.66667 1.24455,1.1623 7.75346,9.14519 11.74753,14.40783 9.16693,12.07845 28.35411,31.36796 32.14895,32.32041 3.0619,0.76848 3.8674,-0.0636 3.45853,-3.57279 -0.20222,-1.7355 -0.54415,-3.90545 -0.75985,-4.82212 -0.21569,-0.91666 0.0393,-0.61666 0.56654,0.66667 1.19189,2.90083 1.32102,6.80579 0.26015,7.86666 -1.93035,1.93035 -4.32636,0.87289 -10.63782,-4.69495 z m 8.43782,-7.17171 c -0.25029,-0.7886 -0.30507,-1.58382 -0.12174,-1.76715 0.18333,-0.18333 0.53812,0.31188 0.78841,1.10048 0.25029,0.7886 0.30507,1.58382 0.12174,1.76715 -0.18334,0.18333 -0.53812,-0.31188 -0.78841,-1.10048 z m -2.57895,-7.08772 c -0.95391,-2.46831 -1.62385,-4.59837 -1.48876,-4.73346 0.13508,-0.13508 1.02608,1.77392 1.97999,4.24223 0.95391,2.46831 1.62386,4.59837 1.48877,4.73346 -0.13509,0.13508 -1.02609,-1.77392 -1.98,-4.24223 z m 122.91229,3.32526 c -5.11043,-0.43894 -11.43542,-2.2922 -17.03042,-4.99003 -22.52261,-10.86006 -31.90817,-37.4911 -20.99802,-59.58084 5.92502,-11.99638 17.00078,-21.10615 29.6951,-24.42408 5.9016,-1.54252 18.80704,-1.66129 24.88251,-0.229 20.23783,4.77104 35.09152,23.47569 34.99055,44.06219 -0.0371,7.55459 -0.99521,11.77546 -4.22025,18.59089 -3.15171,6.66047 -6.4349,10.91454 -12.07315,15.64334 -9.42707,7.90648 -22.65862,12.0087 -35.24632,10.92753 z m 11.50769,-24.68244 c 4.64874,-1.46549 10.04003,-6.64104 11.89976,-11.42356 2.2348,-5.74707 2.11068,-12.66977 -0.31314,-17.46487 -3.33333,-6.59441 -7.28134,-9.68762 -14.90731,-11.67968 -4.93213,-1.28836 -9.50745,-0.45966 -15.37258,2.78436 -4.58964,2.53854 -6.81133,5.36928 -8.91776,11.36244 -4.2585,12.11619 3.72814,25.2184 16.77,27.51146 3.46773,0.6097 6.37678,0.31718 10.84103,-1.09015 z m -137.48372,14.17462 c -1.32952,-3.49688 -1.3883,-5.34027 -0.067,-2.10248 0.73928,1.81165 1.2098,3.42826 1.0456,3.59246 -0.16421,0.1642 -0.60455,-0.50629 -0.97855,-1.48998 z m -2.94162,-8.75549 c -0.64332,-1.67647 -0.45354,-2.10904 0.33236,-0.75756 0.38913,0.66917 0.56706,1.3571 0.39542,1.52875 -0.17165,0.17165 -0.49915,-0.17539 -0.72778,-0.77119 z m -1.67495,-4.38164 c -0.41071,-1.17817 -0.63009,-2.2588 -0.48749,-2.40139 0.14259,-0.1426 0.5953,0.7047 1.00601,1.88287 0.41071,1.17818 0.63009,2.25881 0.48749,2.4014 -0.14259,0.14259 -0.5953,-0.7047 -1.00601,-1.88288 z m -2.65185,-6.68148 c -0.7894,-1.89949 -1.28939,-3.5995 -1.1111,-3.77779 0.17829,-0.17829 0.52551,0.24378 0.77161,0.93793 0.2461,0.69414 0.8571,2.28314 1.35778,3.53111 0.50068,1.24796 0.79932,2.38003 0.66365,2.5157 -0.13567,0.13567 -0.89255,-1.30745 -1.68194,-3.20695 z m -34.08889,-3.24444 c -0.39247,-0.73334 -0.56358,-1.33334 -0.38025,-1.33334 0.18334,0 0.65445,0.6 1.04692,1.33334 0.39246,0.73333 0.56357,1.33333 0.38024,1.33333 -0.18333,0 -0.65444,-0.6 -1.04691,-1.33333 z m 30.75556,-4.75556 c -0.7894,-1.89949 -1.32527,-3.56363 -1.19082,-3.69807 0.13444,-0.13444 0.89031,1.30969 1.6797,3.20918 0.7894,1.8995 1.32527,3.56363 1.19082,3.69807 -0.13444,0.13445 -0.89031,-1.30968 -1.6797,-3.20918 z m -33.64951,0.75556 c -0.64979,-1.1 -1.07089,-2 -0.93578,-2 0.13511,0 0.91105,0.9 1.72431,2 0.81327,1.1 1.23437,2 0.93578,2 -0.29859,0 -1.07453,-0.9 -1.72431,-2 z m -3.23244,-4.83334 c -2.65841,-3.55994 -10.6564,-16.6061 -10.36132,-16.90117 0.15043,-0.15043 1.55127,1.86869 3.11298,4.48693 2.75838,4.62449 6.24811,10.02371 8.4547,13.08091 0.59546,0.825 0.93167,1.5 0.74714,1.5 -0.18454,0 -1.06361,-0.975 -1.9535,-2.16667 z m 33.20972,-3.91666 c -1.00724,-1.86498 -1.70817,-3.51405 -1.55761,-3.66461 0.15055,-0.15056 1.07648,1.27352 2.05761,3.16461 0.98114,1.89109 1.68206,3.54016 1.55762,3.6646 -0.12444,0.12445 -1.05037,-1.29963 -2.05762,-3.1646 z m -3.06524,-6.20242 c -0.37723,-0.9922 -0.99618,-2.38381 -1.37544,-3.09246 -0.37926,-0.70865 -0.5351,-1.28846 -0.34632,-1.28846 0.5723,0 3.15672,5.43584 2.76883,5.82373 -0.19865,0.19866 -0.66984,-0.45061 -1.04707,-1.44281 z m -3.55449,-7.38929 c -0.60978,-1.27873 -0.97125,-2.32496 -0.80327,-2.32496 0.45618,0 2.47995,4.08194 2.17498,4.38692 -0.14466,0.14465 -0.76193,-0.78323 -1.37171,-2.06196 z m -39.59834,-3.82496 c -3.58532,-6.88024 -7.78446,-16.46969 -7.38629,-16.86786 0.13581,-0.13581 1.10334,1.7664 2.15006,4.22713 1.04672,2.46074 3.20724,7.09906 4.80116,10.3074 3.11094,6.26187 3.46124,8.14055 0.43507,2.33333 z m 36.15134,-2.36944 c -3.3873,-5.45339 -3.94808,-6.4818 -3.14781,-5.7728 0.95627,0.8472 5.56445,8.43122 5.28983,8.70584 -0.10864,0.10864 -1.07255,-1.21123 -2.14202,-2.93304 z m -7.25744,-11.46389 c -1.70671,-2.56667 -2.96191,-4.66667 -2.78931,-4.66667 0.17259,0 1.47274,1.725 2.88921,3.83333 3.13683,4.66897 3.63214,5.5 3.27809,5.5 -0.15117,0 -1.67127,-2.1 -3.37799,-4.66666 z m -37.68208,-6.06545 c -0.40906,-1.17344 -0.72368,-2.61375 -0.69915,-3.2007 0.0245,-0.58695 0.46149,0.27085 0.97103,1.90623 1.06657,3.4232 0.84235,4.49075 -0.27188,1.29447 z m 33.44168,-0.10122 c -1.30301,-1.6848 -1.74759,-2.72012 -0.95868,-2.23254 0.78942,0.48789 2.36885,3.06587 1.87834,3.06587 -0.15134,0 -0.56518,-0.375 -0.91966,-0.83333 z m -2.93713,-4.33333 c -0.82925,-1.05737 -0.80567,-1.08095 0.2517,-0.25171 0.64167,0.50323 1.16667,1.02823 1.16667,1.16667 0,0.54869 -0.54746,0.19554 -1.41837,-0.91496 z m -31.86233,-1.22222 c 0.032,-0.77663 0.18996,-0.9346 0.40277,-0.40278 0.19258,0.48125 0.1689,1.05625 -0.0526,1.27778 -0.22153,0.22152 -0.37909,-0.17223 -0.35014,-0.875 z m 24.96294,-7.27778 c -7.14032,-8.68148 -6.95679,-8.65324 -17.84891,-2.74663 -4.30833,2.33633 -7.83333,4.05399 -7.83333,3.81703 0,-0.93499 15.92745,-8.73707 17.83616,-8.73707 1.62689,0 2.67274,0.77902 5.59385,4.16667 4.92107,5.70704 8.7255,10.5 8.33442,10.5 -0.17866,0 -2.91565,-3.15 -6.08219,-7 z m -25.55228,4 c 0.0136,-1.1 0.163,-1.46929 0.33203,-0.82065 0.16903,0.64865 0.15791,1.54865 -0.0247,2 -0.18262,0.45136 -0.32091,-0.0793 -0.30733,-1.17935 z"
         id="path5" />
      <path
         style="fill:#ef050d"
         d="m 552.89905,534.32841 c -1.60189,-0.96021 -3.04209,-2.44627 -3.41923,-3.52814 -0.87309,-2.50456 -8.89066,-9.54088 -17.47981,-15.34051 -6.40159,-4.32254 -23.37836,-18.02052 -38.37285,-30.96176 -3.29379,-2.84277 -6.93581,-5.69277 -8.09337,-6.33334 -1.15755,-0.64057 -7.73383,-6.11467 -14.61394,-12.16467 -13.11624,-11.53372 -21.9954,-18.4027 -26.75317,-20.69644 -3.19307,-1.53938 -3.3619,-2.09522 -1.54261,-5.07884 2.59368,-4.25365 7.97471,-20.24298 10.28396,-30.55805 0.5746,-2.56667 1.65994,-7.36667 2.41185,-10.66667 0.75191,-3.3 1.8045,-7.95 2.33908,-10.33333 2.04594,-9.12153 7.12091,-29.91189 8.62493,-35.33334 2.54918,-9.18887 13.97332,-43.16102 16.70189,-49.66666 5.19264,-12.38066 5.98221,-14.17531 9.38579,-21.33333 1.91782,-4.03334 3.89072,-8.49062 4.38422,-9.90507 0.7012,-2.00973 1.52926,-2.86879 3.78928,-3.93112 l 2.89199,-1.3594 4.02293,1.92278 c 5.22252,2.49614 9.55524,6.95412 10.95605,11.27281 0.59466,1.83333 1.34432,3.61833 1.66592,3.96666 0.96472,1.04493 0.66477,2.75424 -0.70005,3.98938 -0.70662,0.63949 -1.47469,2.41098 -1.70682,3.93666 -0.54304,3.56906 -1.6978,7.72448 -5.68028,20.44063 -3.96727,12.66756 -5.32813,17.4719 -5.32813,18.8103 0,0.56454 -0.41718,1.37267 -0.92707,1.79584 -0.50988,0.42316 -1.44099,3.0849 -2.06912,5.91496 -2.19893,9.90731 -3.73088,15.66192 -4.63467,17.40966 -0.50129,0.96938 -1.5672,4.60651 -2.36871,8.08253 -0.80151,3.47602 -2.17252,8.87004 -3.04671,11.98671 -2.24778,8.01385 -3.91436,14.77333 -5.25982,21.33333 -2.56109,12.48689 -4.57461,21.18243 -5.71177,24.66667 -0.65819,2.01666 -1.39499,5.31666 -1.63735,7.33333 -0.42311,3.52079 -0.35074,3.7595 1.81907,6 4.98524,5.14765 11.07745,10.64363 15.50282,13.9856 2.56666,1.93831 6.31666,5.08375 8.33333,6.98987 2.01667,1.90612 5.76667,5.08647 8.33333,7.06745 2.56667,1.98097 8.71667,7.08581 13.66667,11.34407 8.69821,7.48269 17.69469,14.56168 27.58761,21.70767 2.61015,1.88539 5.8322,4.36039 7.16011,5.5 1.32791,1.1396 2.71924,2.072 3.09185,2.072 0.37262,0 2.25642,1.08612 4.18622,2.41359 1.92981,1.32748 5.48848,3.00412 7.90815,3.72586 5.96833,1.78026 6.37053,2.0402 6.59299,4.26112 0.35385,3.53257 -5.8526,11.06144 -10.52693,12.76993 -0.55,0.20103 -1.45,0.72049 -2,1.15437 -0.55,0.43388 -2.05,1.16917 -3.33333,1.63397 -1.28334,0.46481 -3.53334,1.38301 -5,2.04044 -6.06296,2.71775 -7.5625,3.33375 -8.10076,3.32775 -0.31125,-0.003 -1.81134,-0.75284 -3.33354,-1.66527 z M 337.33334,340.70745 c -8.53643,-1.78059 -13.73395,-5.41914 -17.37034,-12.16017 -3.67053,-6.80433 -4.56904,-10.57725 -5.29018,-22.21395 -1.17988,-19.03933 -2.47261,-24.48347 -7.01274,-29.53319 -4.77796,-5.31424 -4.12616,-5.68946 6.00659,-3.4578 10.49008,2.31035 12.90692,3.17636 20.82922,7.46353 11.28898,6.10906 16.06596,10.85281 22.01392,21.86079 4.87203,9.01674 6.10139,18.0771 3.48476,25.68249 -1.51562,4.40522 -2.48109,5.65864 -6.48724,8.42209 -4.84094,3.3393 -11.39214,4.93364 -16.17399,3.93621 z"
         id="path4" />
      <path
         style="fill:#050ec6"
         d="m 338.2176,555.73949 c -3.56198,-1.68437 -4.75893,-3.00545 -6.49687,-7.17063 l -1.0144,-2.43113 3.64684,-3.79547 c 2.00576,-2.08751 3.64684,-4.181 3.64684,-4.6522 0,-0.47119 -2.57824,-6.21922 -5.72943,-12.7734 -3.15118,-6.55417 -6.27715,-13.29182 -6.9466,-14.97257 -1.43833,-3.6111 -8.294,-17.37542 -16.08158,-32.28744 -3.06665,-5.87217 -6.89266,-13.67217 -8.50226,-17.33333 -1.60959,-3.66117 -3.97856,-8.90666 -5.26437,-11.65666 -1.28582,-2.75 -3.31125,-7.4 -4.50096,-10.33334 -1.18972,-2.93333 -3.86025,-9.37494 -5.93451,-14.31469 -8.55638,-20.37653 -10.39903,-29.50768 -8.12715,-40.27342 0.90991,-4.31174 0.32166,-3.89428 9.85232,-6.99194 3.22932,-1.0496 7.60698,-0.057 9.69908,2.19927 0.87418,0.94277 1.85426,1.71412 2.17795,1.71412 1.62924,0 5.00598,4.07739 8.16615,9.86055 1.93858,3.54764 3.63616,6.75532 3.7724,7.12818 0.13624,0.37286 1.71124,3.78122 3.5,7.57412 1.78876,3.79291 3.25229,7.13117 3.25229,7.41837 0,0.2872 0.44013,0.88746 0.97806,1.3339 1.00345,0.83279 5.68861,10.2142 5.68861,11.39069 0,0.36021 1.19212,3.12377 2.64915,6.14123 1.45704,3.01746 3.52518,8.18629 4.59586,11.48629 1.07069,3.3 2.72857,7.70578 3.68418,9.79061 0.95561,2.08484 1.73747,3.93548 1.73747,4.11253 0,0.17706 1.31537,3.12128 2.92304,6.54272 1.60767,3.42144 3.12431,6.88452 3.3703,7.69573 0.246,0.81121 1.61181,3.59352 3.03514,6.1829 1.42333,2.58939 3.1825,6.29726 3.90927,8.23971 2.86771,7.66467 13.39378,28.4358 14.41024,28.4358 0.56327,0 3.42124,-1.575 6.35105,-3.5 9.94859,-6.53663 13.58109,-8.82998 16.96072,-10.70803 1.85547,-1.03108 5.47358,-3.16226 8.04025,-4.73596 2.56666,-1.5737 7.66666,-4.58843 11.33333,-6.69939 9.20593,-5.3 19.66029,-11.95587 26.26526,-16.72201 2.61707,-1.88848 4.56731,-2.0256 9.12879,-0.64183 1.79994,0.54603 3.97541,0.99603 4.83437,1 2.94641,0.0136 11.55101,3.53643 13.7857,5.64402 2.55037,2.40531 3.53789,6.08772 2.38135,8.87987 -0.83007,2.00395 -5.06972,4.9321 -8.7288,6.02861 -10.32743,3.09479 -12.70377,3.99842 -15.39075,5.8525 -1.68157,1.16032 -3.78157,2.33462 -4.66666,2.60956 -3.59433,1.11649 -13.07181,6.59863 -15.79067,9.13393 -1.00022,0.9327 -2.48696,2.03947 -3.30386,2.45951 -1.66497,0.85609 -9.14033,6.31597 -13.12767,9.58821 -1.43712,1.17939 -3.44655,2.59434 -4.46541,3.14434 -1.01886,0.55 -3.44304,2.28113 -5.38706,3.84695 -10.18246,8.2015 -13.04395,10.38026 -14.86792,11.32056 -1.1,0.56707 -2.37214,1.55799 -2.82697,2.20204 -2.28575,3.23665 -16.74833,11.69699 -22.53113,13.18029 -1.45305,0.37271 -4.44191,0.85983 -6.64191,1.08248 -3.38608,0.3427 -4.52935,0.15452 -7.44907,-1.22615 z"
         id="path3" />
      <path
         style="fill:#090606"
         d="m 420.33334,461.22253 c -4.83866,-2.78922 -23.05953,-21.6057 -30.80765,-31.81471 -2.1182,-2.79098 -5.35928,-6.8745 -7.20238,-9.0745 -5.37453,-6.41523 -17.85488,-25.27397 -23.46921,-35.46372 -6.20583,-11.2633 -11.59262,-25.21345 -12.30631,-31.86961 -0.20596,-1.92085 0.0889,-2.16469 7.45222,-6.16184 10.74449,-5.83263 10.48831,-5.87797 17.98813,3.1834 16.65097,20.11791 29.44689,43.06623 41.62189,74.64511 1.20161,3.11666 2.40285,6.55626 2.66942,7.64354 0.26658,1.08728 1.02952,3.18727 1.69544,4.66666 4.26191,9.46821 7.516,19.5781 7.23695,22.48397 -0.17267,1.798 -0.51997,2.23582 -1.8785,2.36806 -0.91666,0.0892 -2.26666,-0.18364 -3,-0.60636 z"
         id="path2" />
    </g>
  </g>
</svg>
